<svg width="100%" viewBox="0 0 680 420" role="img" xmlns="http://www.w3.org/2000/svg">
<title>Rumour Harm</title>
<rect width="680" height="420" fill="#111111"/>
<rect x="0" y="0" width="680" height="3" fill="#8B1A1A" opacity="0.8"/>
<circle cx="120" cy="200" r="10" fill="#444" stroke="#666" stroke-width="0.8"/>
<circle cx="190" cy="160" r="6" fill="#333" stroke="#555" stroke-width="0.6"/>
<circle cx="190" cy="240" r="6" fill="#333" stroke="#555" stroke-width="0.6"/>
<circle cx="210" cy="200" r="6" fill="#333" stroke="#555" stroke-width="0.6"/>
<circle cx="270" cy="130" r="5" fill="#2A2A2A" stroke="#444" stroke-width="0.5"/>
<circle cx="270" cy="270" r="5" fill="#2A2A2A" stroke="#444" stroke-width="0.5"/>
<g stroke="#444" stroke-width="0.5" opacity="0.5">
<line x1="130" y1="200" x2="184" y2="163"/><line x1="130" y1="200" x2="184" y2="237"/>
<line x1="130" y1="200" x2="204" y2="200"/><line x1="196" y1="160" x2="265" y2="133"/>
<line x1="196" y1="240" x2="265" y2="268"/>
</g>
<text x="340" y="155" text-anchor="middle" font-family="Georgia, serif" font-size="52" font-weight="bold" fill="#E8E8E8">RUMOUR</text>
<text x="340" y="210" text-anchor="middle" font-family="Georgia, serif" font-size="52" font-weight="bold" fill="#888888">HARM</text>
<line x1="200" y1="222" x2="480" y2="222" stroke="#555" stroke-width="0.6" opacity="0.6"/>
<text x="340" y="248" text-anchor="middle" font-family="Georgia, serif" font-size="12" fill="#666" font-style="italic">Sociological White Paper - Sanitised Public Release</text>
<text x="340" y="270" text-anchor="middle" font-family="Georgia, serif" font-size="11" fill="#555">Digital sociology - rumour propagation - reputational harm</text>
<rect x="268" y="290" width="144" height="20" rx="2" fill="none" stroke="#555" stroke-width="0.5" opacity="0.5"/>
<text x="340" y="304" text-anchor="middle" font-family="Georgia, serif" font-size="9" fill="#777" letter-spacing="1.5">PUBLICATION READY</text>
<text x="340" y="355" text-anchor="middle" font-family="Georgia, serif" font-size="11" fill="#555">Richard Steven Vallance 2026</text>
<rect x="8" y="8" width="664" height="404" rx="2" fill="none" stroke="#2A2A2A" stroke-width="0.8" opacity="0.6"/>
</svg>